<svg xmlns="http://www.w3.org/2000/svg" viewBox="0 0 720 1080" role="img" aria-label="青い本を見つけた子ども">
  <rect width="720" height="1080" fill="#fffdf8"/><rect x="34" y="34" width="652" height="1012" rx="10" fill="#f8e8c5" stroke="#202020" stroke-width="8"/>
  <rect x="62" y="62" width="596" height="480" fill="#b6dcf2" stroke="#202020" stroke-width="7"/><circle cx="135" cy="145" r="45" fill="#ffd958"/><path d="M62 420 Q210 250 360 430 T658 370V542H62Z" fill="#79b97b"/>
  <circle cx="362" cy="373" r="88" fill="#f2a875" stroke="#202020" stroke-width="7"/><path d="M275 360 Q360 225 450 355" fill="#353244" stroke="#202020" stroke-width="7"/><circle cx="332" cy="380" r="8"/><circle cx="394" cy="380" r="8"/><path d="M338 425 Q362 445 389 425" fill="none" stroke="#202020" stroke-width="7" stroke-linecap="round"/>
  <rect x="295" y="455" width="135" height="92" rx="6" fill="#3479c7" stroke="#202020" stroke-width="7"/><path d="M362 455v92" stroke="#d8ecff" stroke-width="5"/>
  <path d="M94 648h530v290H94z" fill="#fff" stroke="#202020" stroke-width="7"/><text x="125" y="745" font-family="sans-serif" font-size="48" font-weight="bold" fill="#202020">あれ？</text><text x="125" y="820" font-family="sans-serif" font-size="38" fill="#202020">青い本が光ってる。</text><text x="610" y="1000" text-anchor="end" font-family="sans-serif" font-size="28" fill="#202020">1</text>
</svg>
